<mxfile host="Electron" agent="Mozilla/5.0 (Windows NT 10.0; Win64; x64) AppleWebKit/537.36 (KHTML, like Gecko) draw.io/26.1.1 Chrome/132.0.6834.210 Electron/34.3.3 Safari/537.36" version="26.1.1">
  <diagram name="Страница — 1" id="-Aed9s71p64sYQbSgITG">
    <mxGraphModel dx="1727" dy="2179" grid="1" gridSize="10" guides="1" tooltips="1" connect="1" arrows="1" fold="1" page="1" pageScale="1" pageWidth="827" pageHeight="1169" math="0" shadow="0">
      <root>
        <mxCell id="0" />
        <mxCell id="1" parent="0" />
        <object placeholders="1" c4Name="Бизнес аналитик" c4Type="Person" c4Description="Изучает метрики приложения для развития продукта" label="&lt;font style=&quot;font-size: 16px&quot;&gt;&lt;b&gt;%c4Name%&lt;/b&gt;&lt;/font&gt;&lt;div&gt;[%c4Type%]&lt;/div&gt;&lt;br&gt;&lt;div&gt;&lt;font style=&quot;font-size: 11px&quot;&gt;&lt;font color=&quot;#cccccc&quot;&gt;%c4Description%&lt;/font&gt;&lt;/div&gt;" id="zir2kOPsWTrCl4qfueJd-1">
          <mxCell style="html=1;fontSize=11;dashed=0;whiteSpace=wrap;fillColor=#083F75;strokeColor=#06315C;fontColor=#ffffff;shape=mxgraph.c4.person2;align=center;metaEdit=1;points=[[0.5,0,0],[1,0.5,0],[1,0.75,0],[0.75,1,0],[0.5,1,0],[0.25,1,0],[0,0.75,0],[0,0.5,0]];resizable=0;" vertex="1" parent="1">
            <mxGeometry x="62" y="290" width="200" height="180" as="geometry" />
          </mxCell>
        </object>
        <object placeholders="1" c4Name="Бухгалтер" c4Type="Person" c4Description="Отвечает за финансовую часть проведения сделок" label="&lt;font style=&quot;font-size: 16px&quot;&gt;&lt;b&gt;%c4Name%&lt;/b&gt;&lt;/font&gt;&lt;div&gt;[%c4Type%]&lt;/div&gt;&lt;br&gt;&lt;div&gt;&lt;font style=&quot;font-size: 11px&quot;&gt;&lt;font color=&quot;#cccccc&quot;&gt;%c4Description%&lt;/font&gt;&lt;/div&gt;" id="zir2kOPsWTrCl4qfueJd-2">
          <mxCell style="html=1;fontSize=11;dashed=0;whiteSpace=wrap;fillColor=#083F75;strokeColor=#06315C;fontColor=#ffffff;shape=mxgraph.c4.person2;align=center;metaEdit=1;points=[[0.5,0,0],[1,0.5,0],[1,0.75,0],[0.75,1,0],[0.5,1,0],[0.25,1,0],[0,0.75,0],[0,0.5,0]];resizable=0;" vertex="1" parent="1">
            <mxGeometry x="282" y="290" width="200" height="180" as="geometry" />
          </mxCell>
        </object>
        <object placeholders="1" c4Name="Аналитик BI" c4Type="Person" c4Description="Работает с данными компании" label="&lt;font style=&quot;font-size: 16px&quot;&gt;&lt;b&gt;%c4Name%&lt;/b&gt;&lt;/font&gt;&lt;div&gt;[%c4Type%]&lt;/div&gt;&lt;br&gt;&lt;div&gt;&lt;font style=&quot;font-size: 11px&quot;&gt;&lt;font color=&quot;#cccccc&quot;&gt;%c4Description%&lt;/font&gt;&lt;/div&gt;" id="zir2kOPsWTrCl4qfueJd-3">
          <mxCell style="html=1;fontSize=11;dashed=0;whiteSpace=wrap;fillColor=#083F75;strokeColor=#06315C;fontColor=#ffffff;shape=mxgraph.c4.person2;align=center;metaEdit=1;points=[[0.5,0,0],[1,0.5,0],[1,0.75,0],[0.75,1,0],[0.5,1,0],[0.25,1,0],[0,0.75,0],[0,0.5,0]];resizable=0;" vertex="1" parent="1">
            <mxGeometry x="502" y="290" width="200" height="180" as="geometry" />
          </mxCell>
        </object>
        <object placeholders="1" c4Name="Менеджер" c4Type="Person" c4Description="Развивает продукт, изменяет конфигурации" label="&lt;font style=&quot;font-size: 16px&quot;&gt;&lt;b&gt;%c4Name%&lt;/b&gt;&lt;/font&gt;&lt;div&gt;[%c4Type%]&lt;/div&gt;&lt;br&gt;&lt;div&gt;&lt;font style=&quot;font-size: 11px&quot;&gt;&lt;font color=&quot;#cccccc&quot;&gt;%c4Description%&lt;/font&gt;&lt;/div&gt;" id="zir2kOPsWTrCl4qfueJd-4">
          <mxCell style="html=1;fontSize=11;dashed=0;whiteSpace=wrap;fillColor=#083F75;strokeColor=#06315C;fontColor=#ffffff;shape=mxgraph.c4.person2;align=center;metaEdit=1;points=[[0.5,0,0],[1,0.5,0],[1,0.75,0],[0.75,1,0],[0.5,1,0],[0.25,1,0],[0,0.75,0],[0,0.5,0]];resizable=0;" vertex="1" parent="1">
            <mxGeometry x="732" y="290" width="200" height="180" as="geometry" />
          </mxCell>
        </object>
        <object placeholders="1" c4Name="Клиент" c4Type="Person" c4Description="Потенциальные &#xa;покупатели &#xa;жилья" label="&lt;font style=&quot;font-size: 16px&quot;&gt;&lt;b&gt;%c4Name%&lt;/b&gt;&lt;/font&gt;&lt;div&gt;[%c4Type%]&lt;/div&gt;&lt;br&gt;&lt;div&gt;&lt;font style=&quot;font-size: 11px&quot;&gt;&lt;font color=&quot;#cccccc&quot;&gt;%c4Description%&lt;/font&gt;&lt;/div&gt;" id="zir2kOPsWTrCl4qfueJd-5">
          <mxCell style="html=1;fontSize=11;dashed=0;whiteSpace=wrap;fillColor=#083F75;strokeColor=#06315C;fontColor=#ffffff;shape=mxgraph.c4.person2;align=center;metaEdit=1;points=[[0.5,0,0],[1,0.5,0],[1,0.75,0],[0.75,1,0],[0.5,1,0],[0.25,1,0],[0,0.75,0],[0,0.5,0]];resizable=0;" vertex="1" parent="1">
            <mxGeometry x="150" y="-640" width="200" height="180" as="geometry" />
          </mxCell>
        </object>
        <object placeholders="1" c4Name="Собственник" c4Type="Person" c4Description="Пользователь системы, роль собственник жилья ЖК компании" label="&lt;font style=&quot;font-size: 16px&quot;&gt;&lt;b&gt;%c4Name%&lt;/b&gt;&lt;/font&gt;&lt;div&gt;[%c4Type%]&lt;/div&gt;&lt;br&gt;&lt;div&gt;&lt;font style=&quot;font-size: 11px&quot;&gt;&lt;font color=&quot;#cccccc&quot;&gt;%c4Description%&lt;/font&gt;&lt;/div&gt;" id="zir2kOPsWTrCl4qfueJd-6">
          <mxCell style="html=1;fontSize=11;dashed=0;whiteSpace=wrap;fillColor=#083F75;strokeColor=#06315C;fontColor=#ffffff;shape=mxgraph.c4.person2;align=center;metaEdit=1;points=[[0.5,0,0],[1,0.5,0],[1,0.75,0],[0.75,1,0],[0.5,1,0],[0.25,1,0],[0,0.75,0],[0,0.5,0]];resizable=0;" vertex="1" parent="1">
            <mxGeometry x="1280" y="-640" width="200" height="180" as="geometry" />
          </mxCell>
        </object>
        <object placeholders="1" c4Name="Back-end компании" c4Type="Software System" c4Description="Генерирует и обрабатывает &#xa;данные компании" label="&lt;font style=&quot;font-size: 16px&quot;&gt;&lt;b&gt;%c4Name%&lt;/b&gt;&lt;/font&gt;&lt;div&gt;[%c4Type%]&lt;/div&gt;&lt;br&gt;&lt;div&gt;&lt;font style=&quot;font-size: 11px&quot;&gt;&lt;font color=&quot;#cccccc&quot;&gt;%c4Description%&lt;/font&gt;&lt;/div&gt;" id="zir2kOPsWTrCl4qfueJd-7">
          <mxCell style="rounded=1;whiteSpace=wrap;html=1;labelBackgroundColor=none;fillColor=#1061B0;fontColor=#ffffff;align=center;arcSize=10;strokeColor=#0D5091;metaEdit=1;resizable=0;points=[[0.25,0,0],[0.5,0,0],[0.75,0,0],[1,0.25,0],[1,0.5,0],[1,0.75,0],[0.75,1,0],[0.5,1,0],[0.25,1,0],[0,0.75,0],[0,0.5,0],[0,0.25,0]];" vertex="1" parent="1">
            <mxGeometry x="710" y="-50" width="240" height="120" as="geometry" />
          </mxCell>
        </object>
        <object placeholders="1" c4Name="Моб.приложение/сайт Клиента" c4Type="Container" c4Technology="e.g. JavaScript, Angular etc." c4Description="Моб.приложения для предоставления сервиса потенциальным &#xa;покупателям жилья" label="&lt;font style=&quot;font-size: 16px&quot;&gt;&lt;b&gt;%c4Name%&lt;/b&gt;&lt;/font&gt;&lt;div&gt;[%c4Type%:&amp;nbsp;%c4Technology%]&lt;/div&gt;&lt;br&gt;&lt;div&gt;&lt;font style=&quot;font-size: 11px&quot;&gt;&lt;font color=&quot;#E6E6E6&quot;&gt;%c4Description%&lt;/font&gt;&lt;/div&gt;" id="zir2kOPsWTrCl4qfueJd-8">
          <mxCell style="shape=mxgraph.c4.webBrowserContainer2;whiteSpace=wrap;html=1;boundedLbl=1;rounded=0;labelBackgroundColor=none;strokeColor=#118ACD;fillColor=#23A2D9;strokeColor=#118ACD;strokeColor2=#0E7DAD;fontSize=12;fontColor=#ffffff;align=center;metaEdit=1;points=[[0.5,0,0],[1,0.25,0],[1,0.5,0],[1,0.75,0],[0.5,1,0],[0,0.75,0],[0,0.5,0],[0,0.25,0]];resizable=0;" vertex="1" parent="1">
            <mxGeometry x="390" y="-310" width="240" height="160" as="geometry" />
          </mxCell>
        </object>
        <object placeholders="1" c4Name="Моб.приложение Собственника" c4Type="Container" c4Technology="e.g. JavaScript, Angular etc." c4Description="Моб.приложения для предоставления сервиса собственникам жилья" label="&lt;font style=&quot;font-size: 16px&quot;&gt;&lt;b&gt;%c4Name%&lt;/b&gt;&lt;/font&gt;&lt;div&gt;[%c4Type%:&amp;nbsp;%c4Technology%]&lt;/div&gt;&lt;br&gt;&lt;div&gt;&lt;font style=&quot;font-size: 11px&quot;&gt;&lt;font color=&quot;#E6E6E6&quot;&gt;%c4Description%&lt;/font&gt;&lt;/div&gt;" id="zir2kOPsWTrCl4qfueJd-9">
          <mxCell style="shape=mxgraph.c4.webBrowserContainer2;whiteSpace=wrap;html=1;boundedLbl=1;rounded=0;labelBackgroundColor=none;strokeColor=#118ACD;fillColor=#23A2D9;strokeColor=#118ACD;strokeColor2=#0E7DAD;fontSize=12;fontColor=#ffffff;align=center;metaEdit=1;points=[[0.5,0,0],[1,0.25,0],[1,0.5,0],[1,0.75,0],[0.5,1,0],[0,0.75,0],[0,0.5,0],[0,0.25,0]];resizable=0;" vertex="1" parent="1">
            <mxGeometry x="1010" y="-310" width="240" height="160" as="geometry" />
          </mxCell>
        </object>
        <object placeholders="1" c4Name="Гос.органы" c4Type="Software System" c4Description="Предоставляет интерфейс для реализации фич связанных с юридическим оформлением собственности " label="&lt;font style=&quot;font-size: 16px&quot;&gt;&lt;b&gt;%c4Name%&lt;/b&gt;&lt;/font&gt;&lt;div&gt;[%c4Type%]&lt;/div&gt;&lt;br&gt;&lt;div&gt;&lt;font style=&quot;font-size: 11px&quot;&gt;&lt;font color=&quot;#cccccc&quot;&gt;%c4Description%&lt;/font&gt;&lt;/div&gt;" id="zir2kOPsWTrCl4qfueJd-10">
          <mxCell style="rounded=1;whiteSpace=wrap;html=1;labelBackgroundColor=none;fillColor=#8C8496;fontColor=#ffffff;align=center;arcSize=10;strokeColor=#736782;metaEdit=1;resizable=0;points=[[0.25,0,0],[0.5,0,0],[0.75,0,0],[1,0.25,0],[1,0.5,0],[1,0.75,0],[0.75,1,0],[0.5,1,0],[0.25,1,0],[0,0.75,0],[0,0.5,0],[0,0.25,0]];" vertex="1" parent="1">
            <mxGeometry x="1420" y="-90" width="240" height="120" as="geometry" />
          </mxCell>
        </object>
        <object placeholders="1" c4Name="Поставщик ресурсов ЖКХ" c4Type="Software System" c4Description="Предоставляет интерфейс &#xa;для реализации фич ЖКХ" label="&lt;font style=&quot;font-size: 16px&quot;&gt;&lt;b&gt;%c4Name%&lt;/b&gt;&lt;/font&gt;&lt;div&gt;[%c4Type%]&lt;/div&gt;&lt;br&gt;&lt;div&gt;&lt;font style=&quot;font-size: 11px&quot;&gt;&lt;font color=&quot;#cccccc&quot;&gt;%c4Description%&lt;/font&gt;&lt;/div&gt;" id="zir2kOPsWTrCl4qfueJd-11">
          <mxCell style="rounded=1;whiteSpace=wrap;html=1;labelBackgroundColor=none;fillColor=#8C8496;fontColor=#ffffff;align=center;arcSize=10;strokeColor=#736782;metaEdit=1;resizable=0;points=[[0.25,0,0],[0.5,0,0],[0.75,0,0],[1,0.25,0],[1,0.5,0],[1,0.75,0],[0.75,1,0],[0.5,1,0],[0.25,1,0],[0,0.75,0],[0,0.5,0],[0,0.25,0]];" vertex="1" parent="1">
            <mxGeometry x="1420" y="40" width="240" height="120" as="geometry" />
          </mxCell>
        </object>
        <object placeholders="1" c4Name="Платёжная система" c4Type="Software System" c4Description="Предоставляет интерфейс &#xa;для проведения платежей" label="&lt;font style=&quot;font-size: 16px&quot;&gt;&lt;b&gt;%c4Name%&lt;/b&gt;&lt;/font&gt;&lt;div&gt;[%c4Type%]&lt;/div&gt;&lt;br&gt;&lt;div&gt;&lt;font style=&quot;font-size: 11px&quot;&gt;&lt;font color=&quot;#cccccc&quot;&gt;%c4Description%&lt;/font&gt;&lt;/div&gt;" id="zir2kOPsWTrCl4qfueJd-12">
          <mxCell style="rounded=1;whiteSpace=wrap;html=1;labelBackgroundColor=none;fillColor=#8C8496;fontColor=#ffffff;align=center;arcSize=10;strokeColor=#736782;metaEdit=1;resizable=0;points=[[0.25,0,0],[0.5,0,0],[0.75,0,0],[1,0.25,0],[1,0.5,0],[1,0.75,0],[0.75,1,0],[0.5,1,0],[0.25,1,0],[0,0.75,0],[0,0.5,0],[0,0.25,0]];" vertex="1" parent="1">
            <mxGeometry x="1420" y="170" width="240" height="120" as="geometry" />
          </mxCell>
        </object>
        <object placeholders="1" c4Name="Партнёр умного дома" c4Type="Software System" c4Description="Предоставляет интерфейс &#xa;для реализации фич &quot;Умного Дома&quot;" label="&lt;font style=&quot;font-size: 16px&quot;&gt;&lt;b&gt;%c4Name%&lt;/b&gt;&lt;/font&gt;&lt;div&gt;[%c4Type%]&lt;/div&gt;&lt;br&gt;&lt;div&gt;&lt;font style=&quot;font-size: 11px&quot;&gt;&lt;font color=&quot;#cccccc&quot;&gt;%c4Description%&lt;/font&gt;&lt;/div&gt;" id="zir2kOPsWTrCl4qfueJd-13">
          <mxCell style="rounded=1;whiteSpace=wrap;html=1;labelBackgroundColor=none;fillColor=#8C8496;fontColor=#ffffff;align=center;arcSize=10;strokeColor=#736782;metaEdit=1;resizable=0;points=[[0.25,0,0],[0.5,0,0],[0.75,0,0],[1,0.25,0],[1,0.5,0],[1,0.75,0],[0.75,1,0],[0.5,1,0],[0.25,1,0],[0,0.75,0],[0,0.5,0],[0,0.25,0]];" vertex="1" parent="1">
            <mxGeometry x="1420" y="300" width="240" height="120" as="geometry" />
          </mxCell>
        </object>
        <mxCell id="zir2kOPsWTrCl4qfueJd-14" value="" style="endArrow=none;html=1;rounded=0;startFill=0;exitX=0.961;exitY=0.443;exitDx=0;exitDy=0;exitPerimeter=0;" edge="1" parent="1" source="zir2kOPsWTrCl4qfueJd-5">
          <mxGeometry relative="1" as="geometry">
            <mxPoint x="350" y="-560" as="sourcePoint" />
            <mxPoint x="500" y="-560" as="targetPoint" />
          </mxGeometry>
        </mxCell>
        <mxCell id="zir2kOPsWTrCl4qfueJd-57" value="Использование&lt;br&gt;&quot;Онлайн-витрины&quot;" style="edgeLabel;html=1;align=center;verticalAlign=middle;resizable=0;points=[];labelBackgroundColor=none;" vertex="1" connectable="0" parent="zir2kOPsWTrCl4qfueJd-14">
          <mxGeometry x="0.2812" y="-1" relative="1" as="geometry">
            <mxPoint as="offset" />
          </mxGeometry>
        </mxCell>
        <mxCell id="zir2kOPsWTrCl4qfueJd-15" value="" style="endArrow=none;html=1;rounded=0;" edge="1" parent="1">
          <mxGeometry width="50" height="50" relative="1" as="geometry">
            <mxPoint x="499.64" y="-560" as="sourcePoint" />
            <mxPoint x="500" y="-470" as="targetPoint" />
          </mxGeometry>
        </mxCell>
        <mxCell id="zir2kOPsWTrCl4qfueJd-16" value="" style="endArrow=classic;html=1;rounded=0;" edge="1" parent="1">
          <mxGeometry relative="1" as="geometry">
            <mxPoint x="500" y="-470" as="sourcePoint" />
            <mxPoint x="500" y="-310" as="targetPoint" />
          </mxGeometry>
        </mxCell>
        <mxCell id="zir2kOPsWTrCl4qfueJd-17" value="" style="endArrow=none;html=1;rounded=0;startFill=0;exitX=0.935;exitY=0.944;exitDx=0;exitDy=0;exitPerimeter=0;" edge="1" parent="1" source="zir2kOPsWTrCl4qfueJd-5">
          <mxGeometry relative="1" as="geometry">
            <mxPoint x="340" y="-470" as="sourcePoint" />
            <mxPoint x="500" y="-470" as="targetPoint" />
          </mxGeometry>
        </mxCell>
        <mxCell id="zir2kOPsWTrCl4qfueJd-18" value="" style="endArrow=none;html=1;rounded=0;startFill=0;" edge="1" parent="1">
          <mxGeometry relative="1" as="geometry">
            <mxPoint x="350" y="-514" as="sourcePoint" />
            <mxPoint x="500" y="-514" as="targetPoint" />
          </mxGeometry>
        </mxCell>
        <mxCell id="zir2kOPsWTrCl4qfueJd-19" value="Использование&lt;br&gt;&quot;Онлайн-сделки&quot;" style="edgeLabel;resizable=0;html=1;;align=center;verticalAlign=middle;labelBackgroundColor=none;" connectable="0" vertex="1" parent="1">
          <mxGeometry x="420" y="-515" as="geometry">
            <mxPoint y="4" as="offset" />
          </mxGeometry>
        </mxCell>
        <mxCell id="zir2kOPsWTrCl4qfueJd-20" value="Использование&lt;br&gt;&quot;Онлайн-тура&quot;" style="edgeLabel;resizable=0;html=1;;align=center;verticalAlign=middle;labelBackgroundColor=none;" connectable="0" vertex="1" parent="1">
          <mxGeometry x="410" y="-470" as="geometry">
            <mxPoint x="8" y="-1" as="offset" />
          </mxGeometry>
        </mxCell>
        <mxCell id="zir2kOPsWTrCl4qfueJd-22" value="" style="endArrow=none;html=1;rounded=0;startFill=0;exitX=0.04;exitY=0.453;exitDx=0;exitDy=0;exitPerimeter=0;" edge="1" parent="1" source="zir2kOPsWTrCl4qfueJd-6">
          <mxGeometry relative="1" as="geometry">
            <mxPoint x="970" y="-560" as="sourcePoint" />
            <mxPoint x="1120" y="-560" as="targetPoint" />
          </mxGeometry>
        </mxCell>
        <mxCell id="zir2kOPsWTrCl4qfueJd-58" value="Оплата&lt;br&gt;услуг ЖКХ" style="edgeLabel;html=1;align=center;verticalAlign=middle;resizable=0;points=[];labelBackgroundColor=none;" vertex="1" connectable="0" parent="zir2kOPsWTrCl4qfueJd-22">
          <mxGeometry x="0.1125" y="-1" relative="1" as="geometry">
            <mxPoint as="offset" />
          </mxGeometry>
        </mxCell>
        <mxCell id="zir2kOPsWTrCl4qfueJd-23" value="" style="endArrow=none;html=1;rounded=0;" edge="1" parent="1">
          <mxGeometry width="50" height="50" relative="1" as="geometry">
            <mxPoint x="1120" y="-560" as="sourcePoint" />
            <mxPoint x="1119" y="-469" as="targetPoint" />
          </mxGeometry>
        </mxCell>
        <mxCell id="zir2kOPsWTrCl4qfueJd-24" value="" style="endArrow=classic;html=1;rounded=0;entryX=0.456;entryY=0;entryDx=0;entryDy=0;entryPerimeter=0;" edge="1" parent="1" target="zir2kOPsWTrCl4qfueJd-9">
          <mxGeometry relative="1" as="geometry">
            <mxPoint x="1119" y="-469" as="sourcePoint" />
            <mxPoint x="1130" y="-310" as="targetPoint" />
          </mxGeometry>
        </mxCell>
        <mxCell id="zir2kOPsWTrCl4qfueJd-25" value="" style="endArrow=none;html=1;rounded=0;startFill=0;exitX=0.062;exitY=0.938;exitDx=0;exitDy=0;exitPerimeter=0;" edge="1" parent="1" source="zir2kOPsWTrCl4qfueJd-6">
          <mxGeometry relative="1" as="geometry">
            <mxPoint x="1296" y="-471" as="sourcePoint" />
            <mxPoint x="1119" y="-470" as="targetPoint" />
          </mxGeometry>
        </mxCell>
        <mxCell id="zir2kOPsWTrCl4qfueJd-26" value="" style="endArrow=none;html=1;rounded=0;startFill=0;" edge="1" parent="1">
          <mxGeometry relative="1" as="geometry">
            <mxPoint x="1280" y="-510" as="sourcePoint" />
            <mxPoint x="1120" y="-510" as="targetPoint" />
          </mxGeometry>
        </mxCell>
        <mxCell id="zir2kOPsWTrCl4qfueJd-27" value="Взаимодействие с УК" style="edgeLabel;resizable=0;html=1;;align=center;verticalAlign=middle;labelBackgroundColor=none;" connectable="0" vertex="1" parent="1">
          <mxGeometry x="1021" y="-510" as="geometry">
            <mxPoint x="175" y="-7" as="offset" />
          </mxGeometry>
        </mxCell>
        <mxCell id="zir2kOPsWTrCl4qfueJd-28" value="Умный&lt;br&gt;дом" style="edgeLabel;resizable=0;html=1;;align=center;verticalAlign=middle;labelBackgroundColor=none;" connectable="0" vertex="1" parent="1">
          <mxGeometry x="1021" y="-475" as="geometry">
            <mxPoint x="182" y="3" as="offset" />
          </mxGeometry>
        </mxCell>
        <mxCell id="zir2kOPsWTrCl4qfueJd-32" value="" style="endArrow=classic;html=1;rounded=0;entryX=1;entryY=0.25;entryDx=0;entryDy=0;entryPerimeter=0;exitX=0.458;exitY=1;exitDx=0;exitDy=0;exitPerimeter=0;" edge="1" parent="1" source="zir2kOPsWTrCl4qfueJd-9" target="zir2kOPsWTrCl4qfueJd-7">
          <mxGeometry relative="1" as="geometry">
            <mxPoint x="1129" y="-150" as="sourcePoint" />
            <mxPoint x="959" y="10" as="targetPoint" />
            <Array as="points">
              <mxPoint x="1120" y="-20" />
            </Array>
          </mxGeometry>
        </mxCell>
        <mxCell id="zir2kOPsWTrCl4qfueJd-33" value="HTTPS" style="edgeLabel;resizable=0;html=1;;align=center;verticalAlign=middle;" connectable="0" vertex="1" parent="zir2kOPsWTrCl4qfueJd-32">
          <mxGeometry relative="1" as="geometry">
            <mxPoint x="26" y="-60" as="offset" />
          </mxGeometry>
        </mxCell>
        <mxCell id="zir2kOPsWTrCl4qfueJd-34" value="" style="endArrow=classic;html=1;rounded=0;" edge="1" parent="1">
          <mxGeometry relative="1" as="geometry">
            <mxPoint x="500" y="-150" as="sourcePoint" />
            <mxPoint x="710" y="-20" as="targetPoint" />
            <Array as="points">
              <mxPoint x="500" y="-20" />
              <mxPoint x="610" y="-20" />
            </Array>
          </mxGeometry>
        </mxCell>
        <mxCell id="zir2kOPsWTrCl4qfueJd-35" value="HTTPS" style="edgeLabel;resizable=0;html=1;;align=center;verticalAlign=middle;" connectable="0" vertex="1" parent="zir2kOPsWTrCl4qfueJd-34">
          <mxGeometry relative="1" as="geometry">
            <mxPoint x="-40" y="-60" as="offset" />
          </mxGeometry>
        </mxCell>
        <mxCell id="zir2kOPsWTrCl4qfueJd-36" value="" style="endArrow=none;html=1;rounded=0;exitX=1;exitY=0.75;exitDx=0;exitDy=0;exitPerimeter=0;" edge="1" parent="1" source="zir2kOPsWTrCl4qfueJd-7">
          <mxGeometry width="50" height="50" relative="1" as="geometry">
            <mxPoint x="910" y="-30" as="sourcePoint" />
            <mxPoint x="1200" y="160" as="targetPoint" />
            <Array as="points">
              <mxPoint x="1120" y="40" />
              <mxPoint x="1120" y="160" />
            </Array>
          </mxGeometry>
        </mxCell>
        <mxCell id="zir2kOPsWTrCl4qfueJd-37" value="" style="endArrow=none;html=1;rounded=0;" edge="1" parent="1">
          <mxGeometry width="50" height="50" relative="1" as="geometry">
            <mxPoint x="1200" y="-30" as="sourcePoint" />
            <mxPoint x="1200" y="360" as="targetPoint" />
          </mxGeometry>
        </mxCell>
        <mxCell id="zir2kOPsWTrCl4qfueJd-38" value="" style="endArrow=classic;html=1;rounded=0;entryX=0;entryY=0.5;entryDx=0;entryDy=0;entryPerimeter=0;" edge="1" parent="1" target="zir2kOPsWTrCl4qfueJd-10">
          <mxGeometry relative="1" as="geometry">
            <mxPoint x="1200" y="-30" as="sourcePoint" />
            <mxPoint x="1300" y="-40" as="targetPoint" />
          </mxGeometry>
        </mxCell>
        <mxCell id="zir2kOPsWTrCl4qfueJd-39" value="Оформление недвижимости&lt;br&gt;в гос.органах" style="edgeLabel;resizable=0;html=1;;align=center;verticalAlign=middle;labelBackgroundColor=none;" connectable="0" vertex="1" parent="zir2kOPsWTrCl4qfueJd-38">
          <mxGeometry relative="1" as="geometry" />
        </mxCell>
        <mxCell id="zir2kOPsWTrCl4qfueJd-40" value="" style="endArrow=classic;html=1;rounded=0;entryX=0;entryY=0.5;entryDx=0;entryDy=0;entryPerimeter=0;" edge="1" parent="1">
          <mxGeometry relative="1" as="geometry">
            <mxPoint x="1200" y="359.09" as="sourcePoint" />
            <mxPoint x="1420" y="359.09" as="targetPoint" />
          </mxGeometry>
        </mxCell>
        <mxCell id="zir2kOPsWTrCl4qfueJd-41" value="Работа с:&lt;br&gt;Интеллектуальным домофоном&lt;br&gt;и&lt;br&gt;Интеллектуальным шлагбаумом" style="edgeLabel;resizable=0;html=1;;align=center;verticalAlign=middle;labelBackgroundColor=none;" connectable="0" vertex="1" parent="zir2kOPsWTrCl4qfueJd-40">
          <mxGeometry relative="1" as="geometry">
            <mxPoint y="-39" as="offset" />
          </mxGeometry>
        </mxCell>
        <mxCell id="zir2kOPsWTrCl4qfueJd-42" value="" style="endArrow=classic;html=1;rounded=0;entryX=0;entryY=0.5;entryDx=0;entryDy=0;entryPerimeter=0;" edge="1" parent="1">
          <mxGeometry relative="1" as="geometry">
            <mxPoint x="1200" y="229.54999999999995" as="sourcePoint" />
            <mxPoint x="1420" y="229.54999999999995" as="targetPoint" />
          </mxGeometry>
        </mxCell>
        <mxCell id="zir2kOPsWTrCl4qfueJd-43" value="Провести транзакцию" style="edgeLabel;resizable=0;html=1;;align=center;verticalAlign=middle;labelBackgroundColor=none;" connectable="0" vertex="1" parent="zir2kOPsWTrCl4qfueJd-42">
          <mxGeometry relative="1" as="geometry">
            <mxPoint x="-10" y="-10" as="offset" />
          </mxGeometry>
        </mxCell>
        <mxCell id="zir2kOPsWTrCl4qfueJd-44" value="" style="endArrow=classic;html=1;rounded=0;entryX=0;entryY=0.5;entryDx=0;entryDy=0;entryPerimeter=0;" edge="1" parent="1">
          <mxGeometry relative="1" as="geometry">
            <mxPoint x="1200" y="99.54999999999995" as="sourcePoint" />
            <mxPoint x="1420" y="99.54999999999995" as="targetPoint" />
          </mxGeometry>
        </mxCell>
        <mxCell id="zir2kOPsWTrCl4qfueJd-45" value="Оплатить ЖКХ&lt;br&gt;услуги" style="edgeLabel;resizable=0;html=1;;align=center;verticalAlign=middle;labelBackgroundColor=none;" connectable="0" vertex="1" parent="zir2kOPsWTrCl4qfueJd-44">
          <mxGeometry relative="1" as="geometry" />
        </mxCell>
        <mxCell id="zir2kOPsWTrCl4qfueJd-46" value="" style="endArrow=none;html=1;rounded=0;" edge="1" parent="1">
          <mxGeometry width="50" height="50" relative="1" as="geometry">
            <mxPoint x="831.47" y="160" as="sourcePoint" />
            <mxPoint x="162" y="160" as="targetPoint" />
          </mxGeometry>
        </mxCell>
        <mxCell id="zir2kOPsWTrCl4qfueJd-47" value="" style="endArrow=none;html=1;rounded=0;startFill=0;" edge="1" parent="1">
          <mxGeometry relative="1" as="geometry">
            <mxPoint x="162" y="289.38" as="sourcePoint" />
            <mxPoint x="162" y="160" as="targetPoint" />
          </mxGeometry>
        </mxCell>
        <mxCell id="zir2kOPsWTrCl4qfueJd-48" value="Анализирует&amp;nbsp;&lt;br&gt;метрики" style="edgeLabel;resizable=0;html=1;;align=center;verticalAlign=middle;labelBackgroundColor=none;" connectable="0" vertex="1" parent="zir2kOPsWTrCl4qfueJd-47">
          <mxGeometry relative="1" as="geometry" />
        </mxCell>
        <mxCell id="zir2kOPsWTrCl4qfueJd-49" value="" style="endArrow=none;html=1;rounded=0;startFill=0;" edge="1" parent="1">
          <mxGeometry relative="1" as="geometry">
            <mxPoint x="381.69" y="290" as="sourcePoint" />
            <mxPoint x="381.69" y="160.62" as="targetPoint" />
          </mxGeometry>
        </mxCell>
        <mxCell id="zir2kOPsWTrCl4qfueJd-50" value="Работает с &lt;br&gt;финансовой частью" style="edgeLabel;resizable=0;html=1;;align=center;verticalAlign=middle;labelBackgroundColor=none;" connectable="0" vertex="1" parent="zir2kOPsWTrCl4qfueJd-49">
          <mxGeometry relative="1" as="geometry" />
        </mxCell>
        <mxCell id="zir2kOPsWTrCl4qfueJd-51" value="" style="endArrow=none;html=1;rounded=0;startFill=0;" edge="1" parent="1">
          <mxGeometry relative="1" as="geometry">
            <mxPoint x="601.69" y="290" as="sourcePoint" />
            <mxPoint x="601.69" y="160.62" as="targetPoint" />
          </mxGeometry>
        </mxCell>
        <mxCell id="zir2kOPsWTrCl4qfueJd-52" value="Получает данные &lt;br&gt;для анализа" style="edgeLabel;resizable=0;html=1;;align=center;verticalAlign=middle;labelBackgroundColor=none;" connectable="0" vertex="1" parent="zir2kOPsWTrCl4qfueJd-51">
          <mxGeometry relative="1" as="geometry" />
        </mxCell>
        <mxCell id="zir2kOPsWTrCl4qfueJd-53" value="" style="endArrow=none;html=1;rounded=0;startFill=0;" edge="1" parent="1">
          <mxGeometry relative="1" as="geometry">
            <mxPoint x="831.69" y="290" as="sourcePoint" />
            <mxPoint x="831.69" y="160.62" as="targetPoint" />
          </mxGeometry>
        </mxCell>
        <mxCell id="zir2kOPsWTrCl4qfueJd-54" value="Работает с&lt;br&gt;конфигурациями" style="edgeLabel;resizable=0;html=1;;align=center;verticalAlign=middle;labelBackgroundColor=none;" connectable="0" vertex="1" parent="zir2kOPsWTrCl4qfueJd-53">
          <mxGeometry relative="1" as="geometry" />
        </mxCell>
        <mxCell id="zir2kOPsWTrCl4qfueJd-55" value="" style="endArrow=classic;html=1;rounded=0;entryX=0;entryY=0.75;entryDx=0;entryDy=0;entryPerimeter=0;" edge="1" parent="1" target="zir2kOPsWTrCl4qfueJd-7">
          <mxGeometry width="50" height="50" relative="1" as="geometry">
            <mxPoint x="500" y="160" as="sourcePoint" />
            <mxPoint x="510" y="110" as="targetPoint" />
            <Array as="points">
              <mxPoint x="500" y="40" />
            </Array>
          </mxGeometry>
        </mxCell>
        <object placeholders="1" c4Name="PropDevelopment" c4Type="SystemScopeBoundary" c4Application="Software System" label="&lt;font style=&quot;font-size: 16px&quot;&gt;&lt;b&gt;&lt;div style=&quot;text-align: left&quot;&gt;%c4Name%&lt;/div&gt;&lt;/b&gt;&lt;/font&gt;&lt;div style=&quot;text-align: left&quot;&gt;[%c4Application%]&lt;/div&gt;" id="zir2kOPsWTrCl4qfueJd-56">
          <mxCell style="rounded=1;fontSize=11;whiteSpace=wrap;html=1;dashed=1;arcSize=20;fillColor=none;strokeColor=#666666;fontColor=#333333;labelBackgroundColor=none;align=left;verticalAlign=bottom;labelBorderColor=none;spacingTop=0;spacing=10;dashPattern=8 4;metaEdit=1;rotatable=0;perimeter=rectanglePerimeter;noLabel=0;labelPadding=0;allowArrows=0;connectable=0;expand=0;recursiveResize=0;editable=1;pointerEvents=0;absoluteArcSize=1;points=[[0.25,0,0],[0.5,0,0],[0.75,0,0],[1,0.25,0],[1,0.5,0],[1,0.75,0],[0.75,1,0],[0.5,1,0],[0.25,1,0],[0,0.75,0],[0,0.5,0],[0,0.25,0]];" vertex="1" parent="1">
            <mxGeometry x="40" y="-670" width="1650" height="1210" as="geometry" />
          </mxCell>
        </object>
      </root>
    </mxGraphModel>
  </diagram>
</mxfile>
